G75*
%MOIN*%
%OFA0B0*%
%FSLAX24Y24*%
%IPPOS*%
%LPD*%
%AMOC8*
5,1,8,0,0,1.08239X$1,22.5*
%
%ADD10C,0.0100*%
%ADD11C,0.0000*%
%ADD12C,0.0080*%
%ADD13C,0.0050*%
D10*
X002168Y020695D02*
X036420Y020695D01*
X036497Y020697D01*
X036574Y020703D01*
X036651Y020712D01*
X036727Y020725D01*
X036803Y020742D01*
X036877Y020763D01*
X036951Y020787D01*
X037023Y020815D01*
X037093Y020846D01*
X037162Y020881D01*
X037230Y020919D01*
X037295Y020960D01*
X037358Y021005D01*
X037419Y021053D01*
X037478Y021103D01*
X037534Y021156D01*
X037587Y021212D01*
X037637Y021271D01*
X037685Y021332D01*
X037730Y021395D01*
X037771Y021460D01*
X037809Y021528D01*
X037844Y021597D01*
X037875Y021667D01*
X037903Y021739D01*
X037927Y021813D01*
X037948Y021887D01*
X037965Y021963D01*
X037978Y022039D01*
X037987Y022116D01*
X037993Y022193D01*
X037995Y022270D01*
X037995Y037231D01*
X037993Y037308D01*
X037987Y037385D01*
X037978Y037462D01*
X037965Y037538D01*
X037948Y037614D01*
X037927Y037688D01*
X037903Y037762D01*
X037875Y037834D01*
X037844Y037904D01*
X037809Y037973D01*
X037771Y038041D01*
X037730Y038106D01*
X037685Y038169D01*
X037637Y038230D01*
X037587Y038289D01*
X037534Y038345D01*
X037478Y038398D01*
X037419Y038448D01*
X037358Y038496D01*
X037295Y038541D01*
X037230Y038582D01*
X037162Y038620D01*
X037093Y038655D01*
X037023Y038686D01*
X036951Y038714D01*
X036877Y038738D01*
X036803Y038759D01*
X036727Y038776D01*
X036651Y038789D01*
X036574Y038798D01*
X036497Y038804D01*
X036420Y038806D01*
X002168Y038806D01*
X002091Y038804D01*
X002014Y038798D01*
X001937Y038789D01*
X001861Y038776D01*
X001785Y038759D01*
X001711Y038738D01*
X001637Y038714D01*
X001565Y038686D01*
X001495Y038655D01*
X001426Y038620D01*
X001358Y038582D01*
X001293Y038541D01*
X001230Y038496D01*
X001169Y038448D01*
X001110Y038398D01*
X001054Y038345D01*
X001001Y038289D01*
X000951Y038230D01*
X000903Y038169D01*
X000858Y038106D01*
X000817Y038041D01*
X000779Y037973D01*
X000744Y037904D01*
X000713Y037834D01*
X000685Y037762D01*
X000661Y037688D01*
X000640Y037614D01*
X000623Y037538D01*
X000610Y037462D01*
X000601Y037385D01*
X000595Y037308D01*
X000593Y037231D01*
X000593Y022270D01*
X000595Y022193D01*
X000601Y022116D01*
X000610Y022039D01*
X000623Y021963D01*
X000640Y021887D01*
X000661Y021813D01*
X000685Y021739D01*
X000713Y021667D01*
X000744Y021597D01*
X000779Y021528D01*
X000817Y021460D01*
X000858Y021395D01*
X000903Y021332D01*
X000951Y021271D01*
X001001Y021212D01*
X001054Y021156D01*
X001110Y021103D01*
X001169Y021053D01*
X001230Y021005D01*
X001293Y020960D01*
X001358Y020919D01*
X001426Y020881D01*
X001495Y020846D01*
X001565Y020815D01*
X001637Y020787D01*
X001711Y020763D01*
X001785Y020742D01*
X001861Y020725D01*
X001937Y020712D01*
X002014Y020703D01*
X002091Y020697D01*
X002168Y020695D01*
D11*
X001144Y027782D02*
X001146Y027832D01*
X001152Y027882D01*
X001162Y027931D01*
X001176Y027979D01*
X001193Y028026D01*
X001214Y028071D01*
X001239Y028115D01*
X001267Y028156D01*
X001299Y028195D01*
X001333Y028232D01*
X001370Y028266D01*
X001410Y028296D01*
X001452Y028323D01*
X001496Y028347D01*
X001542Y028368D01*
X001589Y028384D01*
X001637Y028397D01*
X001687Y028406D01*
X001736Y028411D01*
X001787Y028412D01*
X001837Y028409D01*
X001886Y028402D01*
X001935Y028391D01*
X001983Y028376D01*
X002029Y028358D01*
X002074Y028336D01*
X002117Y028310D01*
X002158Y028281D01*
X002197Y028249D01*
X002233Y028214D01*
X002265Y028176D01*
X002295Y028136D01*
X002322Y028093D01*
X002345Y028049D01*
X002364Y028003D01*
X002380Y027955D01*
X002392Y027906D01*
X002400Y027857D01*
X002404Y027807D01*
X002404Y027757D01*
X002400Y027707D01*
X002392Y027658D01*
X002380Y027609D01*
X002364Y027561D01*
X002345Y027515D01*
X002322Y027471D01*
X002295Y027428D01*
X002265Y027388D01*
X002233Y027350D01*
X002197Y027315D01*
X002158Y027283D01*
X002117Y027254D01*
X002074Y027228D01*
X002029Y027206D01*
X001983Y027188D01*
X001935Y027173D01*
X001886Y027162D01*
X001837Y027155D01*
X001787Y027152D01*
X001736Y027153D01*
X001687Y027158D01*
X001637Y027167D01*
X001589Y027180D01*
X001542Y027196D01*
X001496Y027217D01*
X001452Y027241D01*
X001410Y027268D01*
X001370Y027298D01*
X001333Y027332D01*
X001299Y027369D01*
X001267Y027408D01*
X001239Y027449D01*
X001214Y027493D01*
X001193Y027538D01*
X001176Y027585D01*
X001162Y027633D01*
X001152Y027682D01*
X001146Y027732D01*
X001144Y027782D01*
X008624Y037624D02*
X008626Y037674D01*
X008632Y037724D01*
X008642Y037773D01*
X008656Y037821D01*
X008673Y037868D01*
X008694Y037913D01*
X008719Y037957D01*
X008747Y037998D01*
X008779Y038037D01*
X008813Y038074D01*
X008850Y038108D01*
X008890Y038138D01*
X008932Y038165D01*
X008976Y038189D01*
X009022Y038210D01*
X009069Y038226D01*
X009117Y038239D01*
X009167Y038248D01*
X009216Y038253D01*
X009267Y038254D01*
X009317Y038251D01*
X009366Y038244D01*
X009415Y038233D01*
X009463Y038218D01*
X009509Y038200D01*
X009554Y038178D01*
X009597Y038152D01*
X009638Y038123D01*
X009677Y038091D01*
X009713Y038056D01*
X009745Y038018D01*
X009775Y037978D01*
X009802Y037935D01*
X009825Y037891D01*
X009844Y037845D01*
X009860Y037797D01*
X009872Y037748D01*
X009880Y037699D01*
X009884Y037649D01*
X009884Y037599D01*
X009880Y037549D01*
X009872Y037500D01*
X009860Y037451D01*
X009844Y037403D01*
X009825Y037357D01*
X009802Y037313D01*
X009775Y037270D01*
X009745Y037230D01*
X009713Y037192D01*
X009677Y037157D01*
X009638Y037125D01*
X009597Y037096D01*
X009554Y037070D01*
X009509Y037048D01*
X009463Y037030D01*
X009415Y037015D01*
X009366Y037004D01*
X009317Y036997D01*
X009267Y036994D01*
X009216Y036995D01*
X009167Y037000D01*
X009117Y037009D01*
X009069Y037022D01*
X009022Y037038D01*
X008976Y037059D01*
X008932Y037083D01*
X008890Y037110D01*
X008850Y037140D01*
X008813Y037174D01*
X008779Y037211D01*
X008747Y037250D01*
X008719Y037291D01*
X008694Y037335D01*
X008673Y037380D01*
X008656Y037427D01*
X008642Y037475D01*
X008632Y037524D01*
X008626Y037574D01*
X008624Y037624D01*
X015553Y029199D02*
X015555Y029247D01*
X015561Y029295D01*
X015571Y029342D01*
X015584Y029388D01*
X015602Y029433D01*
X015622Y029477D01*
X015647Y029519D01*
X015675Y029558D01*
X015705Y029595D01*
X015739Y029629D01*
X015776Y029661D01*
X015814Y029690D01*
X015855Y029715D01*
X015898Y029737D01*
X015943Y029755D01*
X015989Y029769D01*
X016036Y029780D01*
X016084Y029787D01*
X016132Y029790D01*
X016180Y029789D01*
X016228Y029784D01*
X016276Y029775D01*
X016322Y029763D01*
X016367Y029746D01*
X016411Y029726D01*
X016453Y029703D01*
X016493Y029676D01*
X016531Y029646D01*
X016566Y029613D01*
X016598Y029577D01*
X016628Y029539D01*
X016654Y029498D01*
X016676Y029455D01*
X016696Y029411D01*
X016711Y029366D01*
X016723Y029319D01*
X016731Y029271D01*
X016735Y029223D01*
X016735Y029175D01*
X016731Y029127D01*
X016723Y029079D01*
X016711Y029032D01*
X016696Y028987D01*
X016676Y028943D01*
X016654Y028900D01*
X016628Y028859D01*
X016598Y028821D01*
X016566Y028785D01*
X016531Y028752D01*
X016493Y028722D01*
X016453Y028695D01*
X016411Y028672D01*
X016367Y028652D01*
X016322Y028635D01*
X016276Y028623D01*
X016228Y028614D01*
X016180Y028609D01*
X016132Y028608D01*
X016084Y028611D01*
X016036Y028618D01*
X015989Y028629D01*
X015943Y028643D01*
X015898Y028661D01*
X015855Y028683D01*
X015814Y028708D01*
X015776Y028737D01*
X015739Y028769D01*
X015705Y028803D01*
X015675Y028840D01*
X015647Y028879D01*
X015622Y028921D01*
X015602Y028965D01*
X015584Y029010D01*
X015571Y029056D01*
X015561Y029103D01*
X015555Y029151D01*
X015553Y029199D01*
X018730Y029199D02*
X018732Y029247D01*
X018738Y029295D01*
X018748Y029342D01*
X018761Y029388D01*
X018779Y029433D01*
X018799Y029477D01*
X018824Y029519D01*
X018852Y029558D01*
X018882Y029595D01*
X018916Y029629D01*
X018953Y029661D01*
X018991Y029690D01*
X019032Y029715D01*
X019075Y029737D01*
X019120Y029755D01*
X019166Y029769D01*
X019213Y029780D01*
X019261Y029787D01*
X019309Y029790D01*
X019357Y029789D01*
X019405Y029784D01*
X019453Y029775D01*
X019499Y029763D01*
X019544Y029746D01*
X019588Y029726D01*
X019630Y029703D01*
X019670Y029676D01*
X019708Y029646D01*
X019743Y029613D01*
X019775Y029577D01*
X019805Y029539D01*
X019831Y029498D01*
X019853Y029455D01*
X019873Y029411D01*
X019888Y029366D01*
X019900Y029319D01*
X019908Y029271D01*
X019912Y029223D01*
X019912Y029175D01*
X019908Y029127D01*
X019900Y029079D01*
X019888Y029032D01*
X019873Y028987D01*
X019853Y028943D01*
X019831Y028900D01*
X019805Y028859D01*
X019775Y028821D01*
X019743Y028785D01*
X019708Y028752D01*
X019670Y028722D01*
X019630Y028695D01*
X019588Y028672D01*
X019544Y028652D01*
X019499Y028635D01*
X019453Y028623D01*
X019405Y028614D01*
X019357Y028609D01*
X019309Y028608D01*
X019261Y028611D01*
X019213Y028618D01*
X019166Y028629D01*
X019120Y028643D01*
X019075Y028661D01*
X019032Y028683D01*
X018991Y028708D01*
X018953Y028737D01*
X018916Y028769D01*
X018882Y028803D01*
X018852Y028840D01*
X018824Y028879D01*
X018799Y028921D01*
X018779Y028965D01*
X018761Y029010D01*
X018748Y029056D01*
X018738Y029103D01*
X018732Y029151D01*
X018730Y029199D01*
X028703Y037624D02*
X028705Y037674D01*
X028711Y037724D01*
X028721Y037773D01*
X028735Y037821D01*
X028752Y037868D01*
X028773Y037913D01*
X028798Y037957D01*
X028826Y037998D01*
X028858Y038037D01*
X028892Y038074D01*
X028929Y038108D01*
X028969Y038138D01*
X029011Y038165D01*
X029055Y038189D01*
X029101Y038210D01*
X029148Y038226D01*
X029196Y038239D01*
X029246Y038248D01*
X029295Y038253D01*
X029346Y038254D01*
X029396Y038251D01*
X029445Y038244D01*
X029494Y038233D01*
X029542Y038218D01*
X029588Y038200D01*
X029633Y038178D01*
X029676Y038152D01*
X029717Y038123D01*
X029756Y038091D01*
X029792Y038056D01*
X029824Y038018D01*
X029854Y037978D01*
X029881Y037935D01*
X029904Y037891D01*
X029923Y037845D01*
X029939Y037797D01*
X029951Y037748D01*
X029959Y037699D01*
X029963Y037649D01*
X029963Y037599D01*
X029959Y037549D01*
X029951Y037500D01*
X029939Y037451D01*
X029923Y037403D01*
X029904Y037357D01*
X029881Y037313D01*
X029854Y037270D01*
X029824Y037230D01*
X029792Y037192D01*
X029756Y037157D01*
X029717Y037125D01*
X029676Y037096D01*
X029633Y037070D01*
X029588Y037048D01*
X029542Y037030D01*
X029494Y037015D01*
X029445Y037004D01*
X029396Y036997D01*
X029346Y036994D01*
X029295Y036995D01*
X029246Y037000D01*
X029196Y037009D01*
X029148Y037022D01*
X029101Y037038D01*
X029055Y037059D01*
X029011Y037083D01*
X028969Y037110D01*
X028929Y037140D01*
X028892Y037174D01*
X028858Y037211D01*
X028826Y037250D01*
X028798Y037291D01*
X028773Y037335D01*
X028752Y037380D01*
X028735Y037427D01*
X028721Y037475D01*
X028711Y037524D01*
X028705Y037574D01*
X028703Y037624D01*
X035790Y034869D02*
X035792Y034919D01*
X035798Y034969D01*
X035808Y035018D01*
X035822Y035066D01*
X035839Y035113D01*
X035860Y035158D01*
X035885Y035202D01*
X035913Y035243D01*
X035945Y035282D01*
X035979Y035319D01*
X036016Y035353D01*
X036056Y035383D01*
X036098Y035410D01*
X036142Y035434D01*
X036188Y035455D01*
X036235Y035471D01*
X036283Y035484D01*
X036333Y035493D01*
X036382Y035498D01*
X036433Y035499D01*
X036483Y035496D01*
X036532Y035489D01*
X036581Y035478D01*
X036629Y035463D01*
X036675Y035445D01*
X036720Y035423D01*
X036763Y035397D01*
X036804Y035368D01*
X036843Y035336D01*
X036879Y035301D01*
X036911Y035263D01*
X036941Y035223D01*
X036968Y035180D01*
X036991Y035136D01*
X037010Y035090D01*
X037026Y035042D01*
X037038Y034993D01*
X037046Y034944D01*
X037050Y034894D01*
X037050Y034844D01*
X037046Y034794D01*
X037038Y034745D01*
X037026Y034696D01*
X037010Y034648D01*
X036991Y034602D01*
X036968Y034558D01*
X036941Y034515D01*
X036911Y034475D01*
X036879Y034437D01*
X036843Y034402D01*
X036804Y034370D01*
X036763Y034341D01*
X036720Y034315D01*
X036675Y034293D01*
X036629Y034275D01*
X036581Y034260D01*
X036532Y034249D01*
X036483Y034242D01*
X036433Y034239D01*
X036382Y034240D01*
X036333Y034245D01*
X036283Y034254D01*
X036235Y034267D01*
X036188Y034283D01*
X036142Y034304D01*
X036098Y034328D01*
X036056Y034355D01*
X036016Y034385D01*
X035979Y034419D01*
X035945Y034456D01*
X035913Y034495D01*
X035885Y034536D01*
X035860Y034580D01*
X035839Y034625D01*
X035822Y034672D01*
X035808Y034720D01*
X035798Y034769D01*
X035792Y034819D01*
X035790Y034869D01*
X035790Y021876D02*
X035792Y021926D01*
X035798Y021976D01*
X035808Y022025D01*
X035822Y022073D01*
X035839Y022120D01*
X035860Y022165D01*
X035885Y022209D01*
X035913Y022250D01*
X035945Y022289D01*
X035979Y022326D01*
X036016Y022360D01*
X036056Y022390D01*
X036098Y022417D01*
X036142Y022441D01*
X036188Y022462D01*
X036235Y022478D01*
X036283Y022491D01*
X036333Y022500D01*
X036382Y022505D01*
X036433Y022506D01*
X036483Y022503D01*
X036532Y022496D01*
X036581Y022485D01*
X036629Y022470D01*
X036675Y022452D01*
X036720Y022430D01*
X036763Y022404D01*
X036804Y022375D01*
X036843Y022343D01*
X036879Y022308D01*
X036911Y022270D01*
X036941Y022230D01*
X036968Y022187D01*
X036991Y022143D01*
X037010Y022097D01*
X037026Y022049D01*
X037038Y022000D01*
X037046Y021951D01*
X037050Y021901D01*
X037050Y021851D01*
X037046Y021801D01*
X037038Y021752D01*
X037026Y021703D01*
X037010Y021655D01*
X036991Y021609D01*
X036968Y021565D01*
X036941Y021522D01*
X036911Y021482D01*
X036879Y021444D01*
X036843Y021409D01*
X036804Y021377D01*
X036763Y021348D01*
X036720Y021322D01*
X036675Y021300D01*
X036629Y021282D01*
X036581Y021267D01*
X036532Y021256D01*
X036483Y021249D01*
X036433Y021246D01*
X036382Y021247D01*
X036333Y021252D01*
X036283Y021261D01*
X036235Y021274D01*
X036188Y021290D01*
X036142Y021311D01*
X036098Y021335D01*
X036056Y021362D01*
X036016Y021392D01*
X035979Y021426D01*
X035945Y021463D01*
X035913Y021502D01*
X035885Y021543D01*
X035860Y021587D01*
X035839Y021632D01*
X035822Y021679D01*
X035808Y021727D01*
X035798Y021776D01*
X035792Y021826D01*
X035790Y021876D01*
D12*
X022294Y025457D02*
X022294Y026957D01*
X022044Y027207D01*
X021544Y027207D01*
X021294Y026957D01*
X021294Y025457D01*
X021044Y025207D01*
X020544Y025207D01*
X020294Y025457D01*
X020294Y026957D01*
X020044Y027207D01*
X019544Y027207D01*
X019294Y026957D01*
X019294Y025457D01*
X019044Y025207D01*
X018544Y025207D01*
X018294Y025457D01*
X018294Y026957D01*
X018044Y027207D01*
X017544Y027207D01*
X017294Y026957D01*
X017294Y025457D01*
X017044Y025207D01*
X016544Y025207D01*
X016294Y025457D01*
X016294Y026957D01*
X016544Y027207D01*
X017044Y027207D01*
X017294Y026957D01*
X018294Y026957D02*
X018544Y027207D01*
X019044Y027207D01*
X019294Y026957D01*
X020294Y026957D02*
X020544Y027207D01*
X021044Y027207D01*
X021294Y026957D01*
X021294Y025457D02*
X021544Y025207D01*
X022044Y025207D01*
X022294Y025457D01*
X020294Y025457D02*
X020044Y025207D01*
X019544Y025207D01*
X019294Y025457D01*
X018294Y025457D02*
X018044Y025207D01*
X017544Y025207D01*
X017294Y025457D01*
D13*
X016027Y025941D02*
X016027Y026091D01*
X016027Y026016D02*
X015652Y026016D01*
X015577Y025941D01*
X015577Y025866D01*
X015652Y025791D01*
X015727Y026252D02*
X015727Y026477D01*
X015802Y026552D01*
X015952Y026552D01*
X016027Y026477D01*
X016027Y026252D01*
X015577Y026252D01*
X015577Y026712D02*
X015577Y027012D01*
X015577Y026862D02*
X016027Y026862D01*
X015877Y026712D01*
M02*
