%
M48
M72
T01C0.0400
T02C0.0433
T03C0.1181
T04C0.1260
%
T01
X16794Y25707
X16794Y26707
X17794Y26707
X17794Y25707
X18794Y25707
X18794Y26707
X19794Y26707
X19794Y25707
X20794Y25707
X20794Y26707
X21794Y26707
X21794Y25707
T02
X1814Y21723
X1814Y22723
X1814Y23723
X1814Y24723
X2814Y24723
X3814Y24723
X3814Y25723
X4814Y25723
X4814Y26723
X4814Y27723
X4814Y28723
X4814Y29723
X4814Y30723
X4814Y31723
X4814Y32723
X4814Y33723
X4814Y34723
X4814Y35723
X4814Y36723
X4814Y37723
X5814Y37723
X6814Y37723
X6814Y36723
X6814Y35723
X6814Y34723
X6814Y33723
X6814Y32723
X6814Y31723
X6814Y30723
X6814Y29723
X6814Y28723
X6814Y27723
X6814Y26723
X6814Y25723
X6814Y24723
X6814Y23723
X6814Y22723
X6814Y21723
X5814Y21723
X5814Y22723
X5814Y23723
X5814Y24723
X5814Y25723
X5814Y26723
X5814Y27723
X5814Y28723
X5814Y29723
X5814Y30723
X5814Y31723
X5814Y32723
X5814Y33723
X5814Y34723
X5814Y35723
X5814Y36723
X7814Y36723
X7814Y37723
X7814Y35723
X8814Y35723
X8814Y34723
X8814Y33723
X8814Y32723
X8814Y31723
X8814Y30723
X8814Y29723
X8814Y28723
X8814Y27723
X8814Y26723
X8814Y25723
X8814Y24723
X8814Y23723
X8814Y22723
X8814Y21723
X7814Y21723
X7814Y22723
X7814Y23723
X7814Y24723
X7814Y25723
X7814Y26723
X7814Y27723
X7814Y28723
X7814Y29723
X7814Y30723
X7814Y31723
X7814Y32723
X7814Y33723
X7814Y34723
X9814Y34723
X9814Y35723
X10814Y35723
X11814Y35723
X11814Y36723
X11814Y37723
X10814Y37723
X10814Y36723
X10814Y34723
X11814Y34723
X11814Y33723
X11814Y32723
X11814Y31723
X11814Y30723
X11814Y29723
X11814Y28723
X11814Y27723
X11814Y26723
X11814Y25723
X11814Y24723
X11814Y23723
X11814Y22723
X11814Y21723
X10814Y21723
X10814Y22723
X10814Y23723
X10814Y24723
X10814Y25723
X10814Y26723
X10814Y27723
X10814Y28723
X10814Y29723
X10814Y30723
X10814Y31723
X10814Y32723
X10814Y33723
X9814Y33723
X9814Y32723
X9814Y31723
X9814Y30723
X9814Y29723
X9814Y28723
X9814Y27723
X9814Y26723
X9814Y25723
X9814Y24723
X9814Y23723
X9814Y22723
X9814Y21723
X12814Y21723
X13814Y21723
X13814Y22723
X13814Y23723
X13814Y24723
X13814Y25723
X13814Y26723
X13814Y27723
X13814Y28723
X13814Y29723
X13814Y30723
X13814Y31723
X13814Y32723
X13814Y33723
X13814Y34723
X13814Y35723
X13814Y36723
X13814Y37723
X12814Y37723
X12814Y36723
X12814Y35723
X12814Y34723
X12814Y33723
X12814Y32723
X12814Y31723
X12814Y30723
X12814Y29723
X12814Y28723
X12814Y27723
X12814Y26723
X12814Y25723
X12814Y24723
X12814Y23723
X12814Y22723
X14814Y22723
X15814Y22723
X15814Y23723
X14814Y23723
X14814Y24723
X14814Y25723
X14814Y26723
X14814Y27723
X14814Y28723
X14814Y29723
X14814Y30723
X15814Y30723
X15814Y31723
X15814Y32723
X15814Y33723
X15814Y34723
X15814Y35723
X15814Y36723
X15814Y37723
X14814Y37723
X14814Y36723
X14814Y35723
X14814Y34723
X14814Y33723
X14814Y32723
X14814Y31723
X16814Y31723
X16814Y32723
X16814Y33723
X16814Y34723
X16814Y35723
X16814Y36723
X16814Y37723
X17814Y37723
X18814Y37723
X18814Y36723
X18814Y35723
X18814Y34723
X18814Y33723
X18814Y32723
X18814Y31723
X18814Y30723
X17814Y30723
X17814Y31723
X17814Y32723
X17814Y33723
X17814Y34723
X17814Y35723
X17814Y36723
X19814Y36723
X20814Y36723
X20814Y37723
X19814Y37723
X19814Y35723
X20814Y35723
X20814Y34723
X20814Y33723
X20814Y32723
X20814Y31723
X20814Y30723
X19814Y30723
X19814Y31723
X19814Y32723
X19814Y33723
X19814Y34723
X21814Y34723
X21814Y35723
X21814Y36723
X21814Y37723
X22814Y37723
X23814Y37723
X23814Y36723
X23814Y35723
X23814Y34723
X23814Y33723
X23814Y32723
X23814Y31723
X23814Y30723
X23814Y29723
X23814Y28723
X23814Y27723
X23814Y26723
X23814Y25723
X23814Y24723
X23814Y23723
X23814Y22723
X23814Y21723
X22814Y21723
X22814Y22723
X22814Y23723
X22814Y24723
X22814Y25723
X22814Y26723
X22814Y27723
X22814Y28723
X22814Y29723
X22814Y30723
X22814Y31723
X22814Y32723
X22814Y33723
X22814Y34723
X22814Y35723
X22814Y36723
X24814Y36723
X25814Y36723
X25814Y37723
X24814Y37723
X24814Y35723
X25814Y35723
X25814Y34723
X25814Y33723
X25814Y32723
X25814Y31723
X25814Y30723
X25814Y29723
X25814Y28723
X25814Y27723
X25814Y26723
X25814Y25723
X25814Y24723
X25814Y23723
X25814Y22723
X25814Y21723
X24814Y21723
X24814Y22723
X24814Y23723
X24814Y24723
X24814Y25723
X24814Y26723
X24814Y27723
X24814Y28723
X24814Y29723
X24814Y30723
X24814Y31723
X24814Y32723
X24814Y33723
X24814Y34723
X26814Y34723
X26814Y35723
X26814Y36723
X26814Y37723
X27814Y37723
X27814Y36723
X27814Y35723
X28814Y35723
X28814Y34723
X28814Y33723
X28814Y32723
X28814Y31723
X28814Y30723
X28814Y29723
X28814Y28723
X28814Y27723
X28814Y26723
X28814Y25723
X28814Y24723
X28814Y23723
X28814Y22723
X28814Y21723
X27814Y21723
X27814Y22723
X27814Y23723
X27814Y24723
X27814Y25723
X27814Y26723
X27814Y27723
X27814Y28723
X27814Y29723
X27814Y30723
X27814Y31723
X27814Y32723
X27814Y33723
X27814Y34723
X26814Y33723
X26814Y32723
X26814Y31723
X26814Y30723
X26814Y29723
X26814Y28723
X26814Y27723
X26814Y26723
X26814Y25723
X26814Y24723
X26814Y23723
X26814Y22723
X26814Y21723
X29814Y21723
X30814Y21723
X30814Y22723
X30814Y23723
X30814Y24723
X30814Y25723
X30814Y26723
X30814Y27723
X30814Y28723
X30814Y29723
X30814Y30723
X30814Y31723
X30814Y32723
X30814Y33723
X30814Y34723
X30814Y35723
X30814Y36723
X30814Y37723
X31814Y37723
X31814Y36723
X31814Y35723
X31814Y34723
X31814Y33723
X31814Y32723
X31814Y31723
X31814Y30723
X31814Y29723
X31814Y28723
X31814Y27723
X31814Y26723
X31814Y25723
X31814Y24723
X31814Y23723
X31814Y22723
X31814Y21723
X32814Y21723
X33814Y21723
X33814Y22723
X33814Y23723
X33814Y24723
X33814Y25723
X33814Y26723
X33814Y27723
X33814Y28723
X33814Y29723
X33814Y30723
X33814Y31723
X33814Y32723
X33814Y33723
X33814Y34723
X33814Y35723
X33814Y36723
X33814Y37723
X32814Y37723
X32814Y36723
X32814Y35723
X32814Y34723
X32814Y33723
X32814Y32723
X32814Y31723
X32814Y30723
X32814Y29723
X32814Y28723
X32814Y27723
X32814Y26723
X32814Y25723
X32814Y24723
X32814Y23723
X32814Y22723
X34814Y22723
X34814Y23723
X35814Y23723
X35814Y24723
X35814Y25723
X35814Y26723
X35814Y27723
X35814Y28723
X35814Y29723
X35814Y30723
X35814Y31723
X35814Y32723
X34814Y32723
X34814Y33723
X34814Y34723
X34814Y35723
X34814Y36723
X35814Y36723
X35814Y37723
X34814Y37723
X36814Y37723
X36814Y36723
X36814Y32723
X36814Y31723
X36814Y30723
X36814Y29723
X36814Y28723
X36814Y27723
X36814Y26723
X36814Y25723
X36814Y24723
X36814Y23723
X34814Y24723
X34814Y25723
X34814Y26723
X34814Y27723
X34814Y28723
X34814Y29723
X34814Y30723
X34814Y31723
X29814Y31723
X29814Y32723
X29814Y33723
X29814Y34723
X29814Y35723
X29814Y30723
X29814Y29723
X29814Y28723
X29814Y27723
X29814Y26723
X29814Y25723
X29814Y24723
X29814Y23723
X29814Y22723
X34814Y21723
X21814Y21723
X21814Y22723
X21814Y23723
X20814Y23723
X20814Y22723
X20814Y21723
X19814Y21723
X19814Y22723
X19814Y23723
X18814Y23723
X18814Y22723
X18814Y21723
X17814Y21723
X17814Y22723
X17814Y23723
X16814Y23723
X16814Y22723
X16814Y21723
X15814Y21723
X14814Y21723
X16814Y30723
X21814Y30723
X21814Y31723
X21814Y32723
X21814Y33723
X21814Y29723
X21814Y28723
X4814Y24723
X4814Y23723
X4814Y22723
X4814Y21723
X3814Y21723
X3814Y22723
X3814Y23723
X2814Y23723
X2814Y22723
X2814Y21723
T03
X16144Y29199
X19321Y29199
T04
X29333Y37624
X36420Y34869
X36420Y21876
X9254Y37624
X1774Y27782
M30
